<?xml version="1.0" standalone="no"?>
<!DOCTYPE svg PUBLIC "-//W3C//DTD SVG 20010904//EN"
 "http://www.w3.org/TR/2001/REC-SVG-20010904/DTD/svg10.dtd">
<svg version="1.0" xmlns="http://www.w3.org/2000/svg"
 width="2048.000000pt" height="2048.000000pt" viewBox="0 0 2048.000000 2048.000000"
 preserveAspectRatio="xMidYMid meet">
<metadata>
Created by potrace 1.14, written by Peter Selinger 2001-2017
</metadata>
<g transform="translate(0.000000,2048.000000) scale(0.100000,-0.100000)"
fill="#000000" stroke="none">
<path d="M10117 17123 c-4 -4 -67 -8 -140 -9 -177 -3 -392 -14 -577 -29 -220
-19 -246 -22 -300 -30 -25 -4 -63 -9 -85 -11 -22 -1 -51 -5 -65 -8 -14 -2 -43
-7 -65 -10 -22 -2 -71 -10 -110 -16 -38 -6 -83 -13 -100 -16 -16 -2 -41 -6
-55 -9 -14 -3 -40 -7 -59 -10 -19 -3 -43 -11 -54 -16 -14 -8 -18 -8 -13 0 5 8
0 8 -19 1 -14 -5 -29 -9 -33 -9 -4 1 -9 1 -12 -1 -3 -1 -15 -3 -27 -6 -13 -2
-33 -6 -45 -8 -13 -3 -25 -5 -28 -6 -3 -2 -8 -2 -12 -1 -4 0 -18 -3 -31 -8
-13 -5 -39 -12 -58 -15 -49 -8 -78 -14 -99 -21 -10 -3 -27 -7 -37 -9 -10 -2
-38 -9 -63 -16 -25 -7 -55 -14 -67 -16 -12 -2 -34 -9 -48 -14 -14 -5 -25 -7
-25 -5 0 3 -16 -1 -35 -9 -20 -9 -38 -15 -40 -15 -11 -1 -61 -13 -75 -18 -8
-3 -24 -8 -35 -10 -11 -2 -27 -6 -35 -10 -18 -7 -14 -6 -70 -22 -25 -7 -46
-13 -48 -12 -1 1 -16 -6 -32 -14 -17 -9 -35 -13 -40 -10 -5 3 -11 1 -14 -4 -4
-5 -32 -17 -63 -26 -69 -20 -377 -138 -453 -173 -30 -14 -64 -27 -75 -29 -11
-2 -21 -8 -23 -13 -2 -6 -10 -10 -18 -10 -7 0 -29 -9 -48 -19 -19 -11 -37 -17
-40 -14 -3 4 -6 1 -6 -6 0 -7 -5 -9 -11 -5 -6 3 -14 2 -18 -3 -8 -14 -191
-105 -191 -96 0 5 -4 3 -8 -4 -4 -7 -37 -27 -72 -46 -86 -45 -114 -61 -120
-69 -3 -3 -12 -8 -20 -10 -8 -2 -19 -7 -25 -11 -5 -4 -63 -41 -128 -81 -65
-41 -126 -81 -136 -90 -10 -9 -21 -13 -24 -10 -4 4 -9 -1 -13 -10 -3 -9 -13
-16 -20 -16 -8 0 -17 -7 -20 -15 -3 -8 -14 -17 -24 -20 -10 -3 -30 -16 -46
-30 -15 -13 -31 -22 -36 -19 -4 3 -8 -2 -8 -10 0 -9 -7 -16 -15 -16 -8 0 -20
-9 -27 -20 -7 -11 -18 -20 -25 -20 -7 0 -18 -9 -25 -20 -7 -11 -18 -20 -24
-20 -6 0 -20 -10 -31 -22 -11 -13 -34 -33 -49 -45 -16 -12 -51 -42 -78 -67
-27 -26 -54 -46 -59 -46 -6 0 -8 -3 -5 -6 3 -3 -22 -31 -57 -62 -35 -31 -64
-62 -64 -69 -1 -6 -10 -15 -21 -18 -11 -3 -20 -10 -20 -15 0 -5 -15 -24 -32
-43 -50 -52 -88 -98 -88 -108 0 -5 -7 -9 -15 -9 -8 0 -15 -5 -15 -10 0 -11
-108 -160 -125 -172 -7 -5 -7 -8 0 -8 6 0 6 -3 0 -8 -15 -10 -95 -139 -95
-152 0 -5 -4 -10 -8 -10 -4 0 -19 -25 -32 -55 -13 -30 -28 -55 -32 -55 -4 0
-7 -3 -6 -7 1 -5 -8 -30 -21 -58 -13 -27 -25 -55 -26 -61 -2 -6 -10 -27 -18
-45 -13 -29 -26 -62 -32 -79 -1 -3 -4 -12 -8 -20 -14 -35 -40 -116 -41 -130
-1 -9 -5 -21 -10 -28 -4 -6 -5 -12 -2 -12 3 0 1 -11 -4 -26 -6 -14 -13 -39
-16 -57 -8 -43 -12 -62 -14 -62 -1 0 -3 -20 -5 -45 -2 -25 -6 -58 -9 -75 -17
-85 -25 -373 -11 -380 6 -3 5 -7 -3 -11 -6 -3 -10 -9 -8 -13 3 -4 8 -43 11
-87 3 -43 8 -104 11 -134 3 -30 6 -67 7 -82 0 -16 3 -28 6 -28 3 0 7 -21 8
-48 0 -26 4 -63 7 -82 7 -44 17 -127 20 -160 1 -14 4 -30 8 -35 3 -6 5 -22 4
-37 -1 -16 1 -28 4 -28 3 0 6 -12 7 -27 1 -16 4 -44 7 -63 7 -37 14 -86 21
-135 2 -16 7 -41 10 -55 3 -14 8 -38 10 -55 10 -68 15 -96 30 -157 4 -13 8
-39 11 -58 3 -19 8 -37 12 -40 4 -3 8 -16 10 -30 1 -14 5 -32 9 -40 3 -8 8
-26 10 -40 2 -13 8 -29 13 -36 5 -6 11 -20 13 -31 2 -12 8 -27 14 -35 6 -7 9
-21 8 -30 -2 -9 3 -22 11 -29 8 -6 14 -18 14 -25 0 -7 10 -33 22 -56 13 -24
23 -49 25 -57 1 -8 6 -17 11 -20 5 -3 15 -23 23 -43 7 -21 17 -38 21 -38 4 0
8 -9 8 -21 0 -11 5 -17 10 -14 6 3 10 1 10 -4 0 -16 83 -151 93 -151 4 0 5 -4
2 -10 -3 -5 -1 -10 4 -10 6 0 11 -5 11 -11 0 -6 6 -16 13 -24 6 -7 30 -38 52
-69 22 -31 44 -56 49 -56 5 0 7 -3 4 -6 -6 -5 1 -13 69 -87 18 -19 29 -37 26
-41 -4 -3 1 -6 10 -6 10 0 17 -4 17 -9 0 -5 29 -40 65 -76 36 -37 65 -72 65
-78 0 -6 3 -8 6 -4 3 3 31 -18 63 -48 31 -30 78 -74 105 -98 l49 -45 -21 -27
c-12 -15 -20 -31 -17 -35 4 -7 -139 -160 -150 -160 -3 0 -14 -9 -25 -20 -11
-11 -17 -20 -14 -20 4 0 -4 -8 -17 -19 -13 -10 -86 -79 -162 -153 -75 -74
-137 -134 -137 -133 0 1 -52 -49 -115 -112 -63 -62 -120 -113 -126 -113 -5 0
-9 -3 -7 -7 2 -5 -29 -40 -69 -79 -40 -40 -73 -71 -73 -69 0 1 -82 -79 -182
-178 -101 -100 -185 -182 -188 -182 -3 -1 -86 -82 -185 -179 -99 -97 -283
-277 -408 -399 -125 -122 -233 -228 -240 -235 -72 -76 -130 -132 -138 -132 -5
0 -9 -5 -9 -11 0 -7 -10 -21 -22 -33 -13 -12 -36 -39 -53 -61 -28 -38 -30 -44
-27 -125 4 -91 9 -165 12 -165 1 0 3 -22 5 -50 4 -58 13 -134 20 -173 2 -15 5
-44 7 -64 1 -21 6 -38 11 -38 5 0 4 -7 -3 -15 -10 -12 -10 -15 0 -15 8 0 11
-2 8 -6 -10 -10 39 -154 53 -154 4 0 12 -13 19 -30 7 -16 16 -30 21 -30 5 0 9
-7 9 -15 0 -8 5 -15 10 -15 6 0 10 -5 10 -10 0 -10 36 -66 50 -80 16 -15 80
-112 80 -120 0 -6 7 -13 15 -16 8 -3 17 -14 20 -24 3 -10 17 -30 30 -46 14
-16 25 -34 25 -39 0 -6 8 -18 18 -27 23 -22 42 -46 42 -53 0 -6 13 -23 43 -56
9 -10 17 -23 17 -28 0 -4 13 -24 30 -42 16 -19 30 -40 30 -46 0 -7 4 -13 8
-13 4 0 15 -13 25 -29 9 -16 37 -56 62 -89 25 -33 45 -65 45 -71 0 -6 4 -11
10 -11 5 0 17 -15 26 -32 9 -18 28 -43 41 -55 13 -12 23 -26 23 -30 0 -5 7
-16 15 -25 8 -10 12 -18 9 -18 -2 0 6 -11 20 -25 13 -13 27 -34 31 -45 4 -11
11 -18 16 -15 5 4 9 1 9 -5 0 -9 42 -73 89 -136 9 -12 23 -32 31 -44 8 -12 21
-28 27 -36 7 -7 13 -18 13 -24 0 -6 7 -13 15 -16 8 -4 12 -10 9 -15 -3 -5 0
-9 5 -9 6 0 11 -6 11 -14 0 -8 7 -16 15 -20 8 -3 15 -10 15 -16 0 -6 6 -18 13
-25 29 -33 37 -45 37 -54 0 -5 3 -11 8 -13 4 -1 46 -57 92 -123 47 -66 92
-129 102 -139 9 -10 15 -23 12 -28 -3 -4 3 -8 12 -8 10 0 15 -3 11 -6 -6 -6
41 -76 56 -82 4 -2 7 -8 7 -13 0 -6 9 -19 20 -31 11 -12 20 -28 20 -35 0 -7 4
-13 10 -13 5 0 16 -13 25 -29 8 -16 20 -35 27 -43 8 -7 47 -60 88 -118 40 -58
76 -107 79 -110 3 -3 11 -12 16 -21 34 -55 81 -119 87 -119 5 0 8 -7 8 -15 0
-8 5 -15 10 -15 6 0 10 -7 10 -15 0 -8 5 -15 10 -15 6 0 10 -5 10 -10 0 -6 9
-20 20 -32 10 -12 16 -26 13 -32 -3 -6 -3 -8 2 -4 4 4 31 -25 59 -65 27 -39
54 -73 58 -75 4 -2 8 -10 8 -18 0 -8 7 -17 15 -20 8 -4 15 -10 15 -15 0 -10
157 -232 188 -266 11 -12 18 -24 16 -26 -3 -2 2 -10 11 -17 8 -7 15 -19 15
-28 0 -8 3 -12 7 -9 3 4 11 -2 17 -12 28 -49 80 -121 88 -121 4 0 8 -7 8 -15
0 -8 5 -15 10 -15 6 0 10 -7 10 -15 0 -9 7 -18 15 -21 8 -4 15 -12 15 -19 0
-6 9 -20 20 -30 11 -10 18 -21 15 -25 -2 -3 5 -13 16 -20 10 -8 19 -18 19 -23
0 -5 6 -15 13 -22 29 -34 37 -45 37 -55 0 -6 7 -13 15 -16 8 -4 15 -12 15 -20
0 -8 5 -14 10 -14 6 0 10 -4 10 -10 0 -5 8 -19 18 -30 9 -11 16 -23 14 -26 -2
-3 8 -14 22 -25 15 -11 26 -27 26 -35 0 -8 3 -14 8 -14 4 0 18 -18 32 -40 14
-22 28 -40 32 -40 5 0 8 -7 8 -15 0 -8 4 -15 8 -15 5 0 18 -18 31 -40 12 -22
26 -40 32 -40 5 0 9 -5 9 -11 0 -6 6 -16 13 -23 6 -8 19 -24 27 -36 8 -12 20
-28 25 -34 6 -6 23 -29 40 -51 38 -51 93 -105 108 -106 7 0 21 -3 32 -5 11 -3
65 -7 120 -9 55 -2 100 -5 100 -6 0 -4 1370 -9 2625 -9 2238 0 3260 4 3260 13
0 4 9 3 20 -3 15 -8 20 -8 20 1 0 8 4 9 13 0 8 -6 17 -8 20 -4 9 8 91 8 105
-1 6 -3 13 -2 16 3 6 9 60 6 77 -4 5 -4 9 -3 9 2 0 9 74 8 89 -2 6 -3 11 -2
11 4 0 7 8 7 25 1 15 -6 27 -6 30 0 3 6 15 6 30 0 14 -5 25 -6 25 -2 0 9 105
6 120 -3 5 -3 10 -2 10 3 0 11 30 9 49 -3 9 -5 12 -4 8 2 -4 6 39 9 111 10
211 0 317 5 329 15 7 5 14 5 18 -1 10 -17 102 24 132 59 14 18 33 38 40 45 7
8 13 16 13 20 0 3 11 18 25 33 14 15 25 33 25 40 0 7 5 10 10 7 6 -3 10 -1 10
5 0 12 96 149 116 166 8 6 11 14 7 17 -3 4 -1 7 5 7 7 0 12 7 12 15 0 8 4 15
9 15 6 0 16 11 23 24 7 13 45 68 83 121 39 53 75 104 80 113 6 9 27 39 48 67
20 27 41 55 45 60 4 6 25 37 47 70 22 33 45 65 51 70 5 6 28 37 50 70 44 67
45 69 79 110 14 17 25 35 25 41 0 7 7 14 15 18 8 3 15 10 15 16 0 5 9 21 21
34 12 13 20 26 18 28 -3 3 21 35 49 63 6 8 12 18 12 23 0 6 7 13 16 16 9 4 14
9 11 12 -3 4 -1 12 6 20 30 33 35 42 30 48 -4 3 -2 6 4 6 6 0 30 29 53 65 23
36 46 65 51 65 5 0 9 6 9 14 0 7 7 19 15 26 8 7 12 16 9 21 -3 5 2 9 11 9 9 0
14 4 11 9 -3 4 3 16 14 26 11 10 20 22 20 27 0 4 7 16 16 25 14 16 212 294
247 347 6 10 22 31 35 46 12 15 22 31 22 35 0 3 6 13 13 20 19 22 30 37 62 85
36 54 44 65 68 91 9 10 15 19 11 19 -4 0 41 65 56 80 15 15 50 71 50 80 0 5 4
10 8 10 4 0 21 20 36 45 16 25 33 45 39 45 6 0 8 3 4 6 -3 4 -1 12 6 19 22 23
49 64 47 71 -1 4 3 10 8 13 8 5 133 179 184 255 7 10 23 31 36 46 12 15 22 31
22 34 0 4 11 19 25 34 14 15 25 30 25 35 0 4 4 13 10 20 47 57 60 76 60 86 0
6 5 11 10 11 6 0 10 6 10 14 0 8 7 16 15 20 8 3 15 11 15 18 0 7 10 24 23 38
12 14 51 68 87 120 35 52 68 97 72 98 4 2 8 8 8 14 0 5 6 16 13 23 29 33 37
45 37 55 0 5 5 10 10 10 6 0 10 6 10 13 0 8 11 24 25 37 13 12 22 27 19 31 -3
5 -1 9 4 9 4 0 28 30 52 66 24 37 49 72 54 78 6 7 16 19 21 28 6 9 28 42 50
73 63 90 75 109 81 128 4 9 10 17 14 17 3 0 18 24 33 53 35 72 45 106 50 175
1 17 5 32 8 32 4 0 6 8 6 18 -1 15 2 44 20 202 2 25 5 66 6 92 1 27 5 48 8 48
4 0 6 20 4 45 -1 25 2 45 8 45 5 0 4 6 -2 14 -7 8 -8 17 -3 20 12 7 -8 69 -31
94 -9 10 -17 21 -17 25 0 12 -308 316 -314 310 -3 -4 -6 -1 -6 5 0 14 -47 62
-54 54 -3 -3 -6 0 -6 7 0 6 -21 31 -46 54 -25 23 -105 101 -179 172 -73 72
-219 213 -325 315 -105 102 -250 242 -323 313 -72 70 -135 127 -139 127 -5 0
-8 7 -8 15 0 8 -4 15 -9 15 -4 0 -64 54 -132 121 -68 66 -128 123 -134 127 -5
4 -25 24 -43 45 -17 21 -32 36 -32 33 0 -4 -69 62 -388 372 -64 61 -119 112
-123 112 -3 0 -17 23 -30 50 -13 28 -27 50 -32 50 -4 0 -5 5 -2 10 3 6 1 10
-6 10 -7 0 9 19 36 43 27 23 62 55 77 70 15 15 28 26 28 24 0 -2 39 34 88 82
48 47 86 88 85 90 -1 2 20 25 47 52 27 27 46 49 43 49 -4 0 0 6 9 13 22 18
138 170 192 252 25 39 50 75 56 82 5 7 10 17 10 22 0 5 6 16 13 23 6 7 21 31
32 53 11 22 28 52 37 66 10 14 15 29 11 33 -3 3 -1 6 5 6 6 0 13 14 17 30 4
17 10 30 15 30 4 0 10 10 13 23 10 40 32 94 47 113 8 10 10 15 3 11 -7 -5 -6
4 4 23 8 17 16 39 18 48 2 9 4 17 5 17 2 0 11 38 12 53 1 6 6 12 11 12 6 0 8
3 4 6 -3 3 -2 17 3 30 6 14 12 35 15 47 2 12 9 40 14 63 6 22 13 58 16 80 6
44 13 79 15 79 1 0 3 11 5 25 3 26 13 91 19 125 9 50 20 132 19 148 0 9 3 17
7 17 3 0 6 10 5 23 -1 12 0 27 4 32 3 6 6 26 8 45 1 19 4 46 7 60 4 14 8 50
11 80 3 30 7 66 10 80 6 26 18 149 19 188 1 12 5 22 10 22 5 0 3 6 -3 14 -8
10 -9 16 -1 21 5 3 10 18 9 33 -2 57 10 253 17 264 4 6 3 8 -3 5 -14 -9 -12
75 2 85 6 5 6 8 -1 8 -7 0 -11 12 -11 28 1 49 -16 212 -29 272 -8 39 -12 62
-18 95 -3 17 -9 44 -15 62 -5 17 -7 34 -3 37 3 3 0 6 -6 6 -7 0 -11 3 -10 8 1
4 -5 27 -12 52 -8 25 -14 48 -14 52 -1 3 -4 10 -8 14 -5 4 -8 17 -8 30 0 12
-5 24 -10 26 -6 2 -12 13 -13 26 0 12 -5 22 -9 22 -4 0 -8 9 -8 19 0 11 -5 23
-10 26 -6 4 -8 11 -5 16 4 5 1 9 -6 9 -7 0 -9 3 -6 7 4 3 1 13 -7 22 -8 9 -14
20 -14 24 1 12 -76 161 -84 165 -5 2 -8 10 -8 18 0 8 -4 14 -9 14 -5 0 -13 10
-16 21 -7 20 -130 207 -144 219 -3 3 -19 23 -35 45 -17 22 -40 50 -53 63 -13
12 -21 22 -17 22 4 0 -5 12 -20 26 -14 15 -26 31 -26 36 0 5 -4 6 -10 3 -5 -3
-10 -1 -10 4 0 13 -212 225 -295 296 -32 28 -76 65 -96 83 -20 17 -39 32 -43
32 -3 0 -14 8 -24 18 -37 35 -72 62 -81 62 -5 0 -11 4 -13 8 -2 4 -25 23 -53
42 -27 19 -52 37 -55 40 -3 3 -27 20 -55 38 -27 17 -55 36 -62 42 -7 5 -24 15
-38 22 -14 6 -25 15 -25 20 0 4 -4 8 -9 8 -5 0 -45 22 -88 48 -43 27 -93 55
-111 63 -17 7 -32 17 -32 21 0 5 -6 8 -14 8 -8 0 -16 3 -18 8 -1 4 -30 20 -63
36 -33 16 -63 34 -66 39 -3 5 -9 8 -13 7 -10 -2 -120 53 -124 62 -2 4 -12 8
-22 8 -10 0 -25 6 -32 13 -7 6 -20 13 -28 15 -8 2 -28 10 -44 18 -16 8 -35 14
-43 14 -7 0 -13 3 -13 8 0 7 -114 55 -126 52 -4 -1 -10 2 -13 7 -7 11 -183 79
-193 75 -5 -1 -8 2 -8 8 0 5 -8 10 -18 10 -10 0 -22 3 -26 7 -3 4 -16 8 -28
10 -12 2 -27 8 -34 14 -7 6 -18 8 -24 4 -5 -3 -10 -1 -10 6 0 7 -3 10 -6 7 -3
-4 -17 0 -31 7 -15 8 -30 12 -35 9 -4 -3 -8 0 -8 7 0 7 -3 10 -6 6 -3 -3 -25
1 -47 10 -23 8 -46 16 -52 17 -12 4 -29 9 -75 25 -19 7 -39 14 -45 15 -57 15
-103 28 -115 33 -8 3 -19 5 -24 4 -4 -1 -13 3 -20 8 -6 5 -24 10 -41 12 -16 2
-36 7 -42 12 -7 5 -13 6 -13 2 0 -4 -7 -2 -15 5 -8 6 -18 10 -22 7 -4 -3 -19
0 -33 6 -14 6 -32 11 -40 12 -8 1 -22 4 -30 8 -14 5 -53 14 -95 21 -11 2 -38
9 -59 14 -22 6 -43 9 -47 6 -4 -2 -10 0 -14 6 -4 6 -11 8 -16 5 -5 -4 -9 -2
-9 2 0 5 -12 8 -27 8 -16 -1 -35 2 -43 6 -17 8 -93 22 -127 23 -13 1 -23 4
-23 7 0 3 -6 6 -12 6 -21 1 -82 11 -108 17 -14 3 -41 8 -60 11 -19 2 -46 7
-60 10 -14 4 -37 6 -53 6 -18 0 -25 4 -21 12 5 9 4 9 -6 0 -8 -7 -19 -9 -29
-4 -9 5 -35 9 -58 9 -23 1 -51 6 -62 11 -14 8 -22 8 -26 1 -4 -7 -12 -7 -18
-2 -7 5 -25 9 -42 10 -43 3 -58 7 -72 15 -6 4 -14 3 -18 -3 -4 -6 -11 -7 -17
-4 -11 7 -41 11 -125 18 -28 2 -56 7 -62 11 -6 3 -11 1 -11 -5 0 -6 -5 -8 -11
-4 -22 13 -321 32 -619 39 -69 1 -127 4 -130 5 -3 1 -9 1 -15 0 -31 -7 -55 -6
-55 1 0 5 -11 4 -24 -1 -16 -6 -26 -5 -28 1 -2 6 -7 7 -11 2z m-2927 -1678
c30 -2 78 -7 105 -11 28 -4 58 -7 68 -7 9 -1 17 -5 17 -10 0 -5 6 -7 14 -4 7
3 18 1 22 -3 5 -5 24 -10 42 -12 17 -1 32 -5 32 -9 0 -4 14 -10 30 -14 38 -8
187 -81 207 -100 8 -8 19 -15 25 -15 6 0 21 -11 34 -25 13 -14 26 -25 29 -26
16 0 35 -13 35 -25 0 -8 5 -14 11 -14 12 0 69 -60 69 -73 0 -4 5 -5 10 -2 6 3
10 0 10 -7 0 -8 9 -20 19 -28 11 -7 18 -17 16 -21 -3 -4 2 -9 10 -13 8 -3 15
-12 15 -21 0 -8 4 -15 8 -15 5 0 14 -10 20 -22 6 -13 25 -46 41 -75 36 -63
104 -240 96 -253 -3 -4 0 -10 5 -12 6 -2 13 -18 15 -36 7 -49 13 -84 20 -112
9 -44 18 -142 19 -220 0 -41 5 -78 11 -82 7 -5 6 -8 -1 -8 -12 0 -12 -59 0
-79 6 -9 5 -12 -1 -8 -6 4 -11 -13 -12 -41 -4 -81 -8 -116 -16 -162 -5 -25 -9
-49 -10 -55 -2 -27 -44 -178 -62 -225 -4 -8 -5 -18 -5 -22 1 -5 -2 -8 -8 -8
-6 0 -9 -4 -8 -8 4 -10 -45 -116 -54 -120 -5 -2 -8 -12 -8 -23 0 -10 -4 -19
-10 -19 -5 0 -10 -7 -10 -15 0 -8 -4 -15 -10 -15 -5 0 -10 -5 -10 -12 0 -14
-71 -109 -121 -161 -22 -22 -39 -44 -39 -50 0 -6 -3 -7 -7 -4 -3 4 -16 -5 -29
-18 -13 -14 -26 -25 -30 -25 -4 0 -15 -10 -25 -22 -11 -11 -19 -17 -19 -12 0
5 -7 0 -15 -10 -8 -11 -15 -17 -15 -14 0 4 -23 -9 -51 -28 -28 -19 -55 -31
-60 -28 -5 3 -9 1 -9 -5 0 -8 -36 -25 -50 -23 -19 2 -29 -25 -25 -71 4 -65 25
-147 36 -147 5 0 9 -10 9 -22 0 -12 3 -18 6 -15 4 3 15 -5 26 -18 11 -14 26
-25 34 -25 8 0 14 -5 14 -12 0 -6 3 -8 6 -5 4 3 15 2 26 -4 48 -26 226 -32
318 -11 36 8 73 15 83 15 9 1 17 5 17 9 0 4 9 8 19 8 11 0 23 5 26 10 4 6 21
9 38 7 l32 -3 0 -218 c0 -211 -2 -238 -21 -237 -5 0 -18 -2 -29 -4 -11 -2 -40
-7 -65 -10 -25 -3 -65 -9 -90 -12 -62 -9 -413 -9 -475 0 -27 3 -68 11 -90 16
-22 6 -52 13 -68 17 -15 3 -30 10 -33 15 -3 5 -13 9 -23 9 -25 0 -127 68 -182
121 -78 75 -128 164 -162 284 -7 28 -13 61 -12 73 1 12 -1 22 -4 22 -3 0 -7
23 -8 51 -1 28 -3 53 -5 54 -2 2 -37 6 -78 9 -72 7 -115 13 -115 16 0 1 -16 4
-35 6 -19 3 -46 9 -60 13 -14 5 -46 15 -72 22 -27 7 -48 17 -48 22 0 4 -3 6
-8 3 -10 -6 -125 48 -180 85 -23 16 -45 29 -47 29 -24 0 -273 260 -248 260 4
0 3 4 -2 8 -22 16 -91 138 -87 155 1 4 -2 7 -7 7 -4 0 -14 21 -21 48 -7 26
-17 53 -23 60 -5 6 -6 12 -2 12 4 0 2 7 -5 15 -7 8 -9 15 -4 15 4 0 3 5 -4 12
-7 7 -12 26 -12 43 0 18 -3 35 -7 39 -5 4 -9 22 -10 39 0 18 -2 33 -2 35 -1 1
-1 5 0 8 0 4 -5 11 -13 15 -9 6 -10 9 -1 9 9 0 10 7 4 23 -11 30 -14 88 -14
247 0 118 7 265 13 265 1 0 3 11 4 25 0 14 4 30 7 35 3 6 5 22 4 38 0 15 2 27
5 27 4 0 7 6 7 13 1 6 8 41 18 77 9 36 17 71 17 78 1 6 4 12 7 12 7 0 36 91
33 103 -1 4 2 7 6 7 7 0 32 44 35 60 1 12 81 136 91 142 6 4 8 8 4 8 -5 0 0 8
10 19 9 10 30 33 46 52 54 64 96 109 96 103 0 -4 11 5 25 20 13 14 29 26 35
26 5 0 10 5 10 10 0 6 7 10 15 10 8 0 15 5 15 11 0 5 14 15 30 20 17 6 30 15
30 21 0 5 5 6 10 3 6 -3 10 -2 10 3 0 10 79 47 93 44 4 -1 7 2 7 6 0 6 59 28
100 38 3 0 18 6 34 13 16 6 41 13 57 15 16 1 32 5 35 9 3 3 12 3 20 0 8 -3 14
-1 14 4 0 5 10 9 23 8 12 -1 27 2 34 7 7 5 14 5 18 -2 3 -6 12 -7 18 -3 7 4
41 9 76 10 35 1 65 3 66 5 4 4 88 0 165 -7z m1457 -44 c18 6 22 6 17 -3 -4 -7
-3 -8 5 -4 17 11 61 15 61 5 0 -4 14 -4 30 1 19 5 30 5 30 -1 0 -6 6 -7 12 -3
17 11 48 12 54 3 2 -5 16 -4 30 1 18 7 23 7 18 -2 -4 -7 -3 -8 5 -4 19 12 61
14 67 4 3 -4 10 -6 15 -2 16 10 119 10 122 0 2 -6 9 -6 17 -1 8 5 26 9 40 9
23 0 25 -4 26 -42 1 -23 4 -49 8 -57 3 -8 1 -15 -5 -15 -6 0 -6 -7 1 -19 5
-11 7 -22 3 -24 -10 -6 -9 -1544 1 -1577 4 -14 9 -40 12 -59 2 -19 9 -40 14
-46 6 -7 7 -15 3 -18 -3 -4 -1 -7 5 -7 7 0 12 -9 12 -20 0 -11 5 -20 10 -20 6
0 10 -7 10 -15 0 -22 80 -100 121 -118 52 -23 73 -30 89 -31 8 -1 20 -4 25 -7
6 -3 31 -5 58 -5 26 1 47 -2 47 -6 0 -3 14 -3 31 2 18 5 36 7 40 4 5 -3 9 1
10 8 0 10 2 10 6 1 3 -10 10 -10 25 -2 11 6 26 8 34 5 8 -3 14 -1 14 4 0 4 17
14 38 20 20 7 43 19 50 28 6 9 12 12 12 7 0 -5 20 12 44 37 44 47 76 99 76
125 0 8 3 12 8 10 4 -3 7 5 8 16 0 12 4 36 8 52 16 68 19 107 20 257 0 94 4
154 10 151 5 -4 6 0 0 8 -12 20 -13 120 -1 112 6 -4 7 -1 1 8 -11 18 -12 51
-2 66 5 6 5 14 1 16 -10 6 -10 323 -1 333 4 4 4 12 0 18 -11 17 -10 126 1 119
6 -4 7 -1 1 8 -12 20 -13 279 0 272 5 -4 6 -1 0 8 -13 21 -13 119 0 112 8 -5
8 -3 0 8 -13 18 -17 266 -3 274 5 4 9 2 9 -4 0 -6 11 -6 30 -1 21 6 28 5 24
-2 -4 -7 -2 -8 4 -4 19 12 81 13 86 2 3 -7 7 -8 13 -1 10 12 83 14 83 2 0 -4
4 -6 9 -2 17 10 71 13 71 3 0 -5 4 -7 9 -3 17 10 71 13 71 3 0 -5 4 -7 9 -3
17 10 71 13 71 3 0 -5 4 -6 10 -3 23 14 81 11 96 -6 10 -11 12 -19 4 -24 -5
-3 -7 -11 -4 -17 8 -12 11 -118 4 -118 -3 0 -4 -17 -3 -37 1 -21 2 -38 3 -38
1 0 2 -15 3 -33 1 -17 -1 -32 -5 -32 -4 0 -4 -11 1 -23 5 -13 5 -30 1 -37 -5
-8 -6 -18 -3 -23 8 -14 9 -76 1 -71 -5 3 -4 -6 1 -19 5 -13 5 -30 1 -37 -5 -8
-5 -21 0 -29 4 -8 4 -25 0 -37 -5 -12 -6 -24 -4 -27 9 -9 11 -178 2 -183 -5
-3 -5 -11 -1 -17 12 -19 11 -147 -1 -147 -8 0 -8 -3 -1 -8 14 -10 15 -305 1
-314 -8 -5 -8 -8 0 -8 11 0 13 -54 2 -66 -4 -4 -4 -12 0 -18 9 -14 13 -356 3
-356 -11 0 -7 -54 4 -62 6 -5 6 -8 -1 -8 -6 0 -11 -6 -12 -12 -1 -20 -12 -71
-18 -88 -3 -8 -8 -25 -10 -37 -2 -12 -9 -35 -16 -50 -6 -16 -12 -30 -13 -33
-1 -3 -11 -26 -23 -53 -12 -26 -21 -50 -21 -53 0 -3 -9 -14 -21 -24 -12 -10
-21 -22 -20 -27 0 -4 -12 -23 -27 -42 -31 -39 -123 -131 -123 -125 0 3 -12 -7
-27 -21 -16 -14 -37 -28 -48 -31 -11 -4 -22 -10 -25 -13 -12 -15 -153 -75
-202 -86 -88 -19 -126 -27 -148 -31 -128 -22 -344 -23 -557 -2 -7 1 -13 4 -13
7 0 3 -12 7 -28 8 -22 2 -57 8 -69 12 -2 1 -6 2 -10 2 -55 8 -268 108 -289
135 -6 8 -15 14 -20 14 -16 0 -130 116 -165 167 -18 26 -36 50 -41 51 -4 2 -8
11 -8 21 0 9 -5 22 -12 29 -6 6 -13 18 -14 25 -1 7 -11 33 -22 57 -11 25 -23
65 -27 90 -4 25 -10 50 -13 55 -4 6 -8 19 -9 30 -1 11 -5 33 -8 48 -3 20 -1
26 8 21 9 -6 9 -5 0 7 -16 19 -24 179 -9 179 7 0 7 3 1 8 -14 10 -14 65 -1 74
7 5 7 8 1 8 -13 0 -13 63 0 72 7 5 7 8 0 8 -14 0 -14 70 -1 70 6 0 4 5 -4 10
-8 5 -10 10 -4 10 8 0 9 11 4 35 -4 19 -5 35 -1 35 7 0 5 126 -3 147 -3 8 -2
12 2 9 9 -5 7 158 -3 173 -3 6 -3 11 2 11 4 0 9 199 10 441 1 243 5 449 8 457
4 11 9 12 17 4 7 -7 19 -7 35 -1z m2443 -4 c0 -4 4 -6 9 -2 17 10 71 13 71 3
0 -5 4 -7 9 -3 17 10 71 13 71 3 0 -5 4 -7 9 -3 17 10 71 13 71 3 0 -5 4 -7 9
-3 17 10 71 13 71 3 0 -5 4 -7 9 -3 17 10 71 13 71 3 0 -5 4 -7 9 -3 17 10 71
13 71 3 0 -5 4 -7 9 -3 17 10 71 13 71 3 0 -5 4 -7 9 -3 17 10 71 13 71 3 0
-5 4 -7 9 -3 17 10 71 13 71 3 0 -5 4 -7 9 -3 17 10 71 13 71 3 0 -5 4 -7 9
-3 17 10 71 13 71 3 0 -5 4 -7 9 -3 17 10 71 13 71 3 0 -5 4 -7 9 -3 17 10 71
13 71 3 0 -5 4 -7 9 -3 17 10 71 13 71 3 0 -5 4 -7 9 -3 15 8 71 13 71 5 0 -3
12 -5 28 -3 l27 5 1 -214 1 -213 -176 0 -176 0 -1 -80 c0 -44 3 -87 8 -96 4
-9 4 -19 1 -23 -10 -10 -10 -106 -1 -112 5 -3 5 -11 1 -17 -10 -16 -12 -57 -3
-62 4 -3 5 -17 3 -32 -2 -16 -4 -48 -3 -73 0 -25 0 -71 1 -102 0 -32 -2 -62
-6 -68 -3 -5 -2 -10 3 -10 11 0 10 -119 -1 -137 -4 -6 -4 -14 1 -17 4 -2 9
-104 9 -225 1 -121 3 -224 5 -228 2 -4 3 -85 3 -180 l0 -171 32 -4 c19 -2 33
1 34 7 0 6 2 6 5 0 5 -11 124 -12 142 -1 7 4 12 4 12 -1 0 -4 31 -7 69 -7 l68
2 1 -57 c1 -31 1 -65 2 -76 0 -11 1 -69 1 -130 1 -60 2 -123 3 -140 l2 -30
-650 2 c-358 1 -660 2 -671 2 -20 1 -21 7 -19 96 1 52 -3 95 -8 95 -5 0 -5 7
0 18 5 9 7 26 5 37 -5 24 -5 30 0 73 2 17 0 32 -4 32 -6 0 -5 23 1 40 1 3 3
11 4 17 0 7 3 12 6 11 3 -1 15 4 28 11 16 9 22 9 22 0 0 -8 4 -8 15 1 8 7 15
9 15 4 0 -9 128 -10 136 -1 3 3 21 1 40 -3 19 -4 36 -4 39 0 2 4 15 5 28 3 22
-4 24 -1 25 37 1 23 4 45 6 49 3 4 1 13 -4 21 -5 8 -5 21 0 30 5 9 5 22 1 29
-5 7 -5 30 -1 52 4 21 4 39 -1 39 -5 0 -4 11 1 24 5 13 6 27 3 30 -4 4 -8 176
-10 384 -2 207 -5 503 -6 657 l-2 280 -43 1 c-23 0 -44 3 -47 6 -3 2 -26 2
-53 -3 -26 -4 -48 -3 -50 2 -2 5 -8 7 -13 4 -16 -11 -79 -11 -79 -1 0 7 -4 6
-11 -1 -12 -12 -59 -5 -59 8 0 5 -1 97 -3 205 -2 150 0 197 10 203 18 9 53 9
53 -2z m1590 -1 c0 5 20 9 45 9 25 0 45 -4 45 -8 0 -5 4 -6 9 -2 17 10 71 13
71 3 0 -5 4 -7 9 -3 17 10 71 13 71 3 0 -5 4 -7 9 -3 17 10 71 13 71 3 0 -5 4
-7 9 -3 17 10 71 13 71 3 0 -5 4 -7 9 -3 17 10 71 13 71 3 0 -5 4 -7 9 -3 17
10 71 13 71 3 0 -5 4 -7 9 -3 17 10 71 13 71 3 0 -5 4 -7 9 -3 17 10 71 13 71
3 0 -5 4 -7 9 -3 17 10 71 13 71 3 0 -5 4 -7 9 -3 17 10 71 13 71 3 0 -5 4 -7
9 -3 17 10 71 13 71 3 0 -5 4 -7 9 -3 17 10 71 13 71 3 0 -5 4 -7 9 -3 17 10
71 13 71 3 0 -5 4 -7 9 -3 17 10 71 13 71 3 0 -5 4 -7 9 -3 17 10 71 13 71 3
0 -5 4 -7 9 -3 17 10 71 13 71 3 0 -5 4 -7 9 -3 17 10 71 13 71 3 0 -5 4 -7 9
-3 17 10 71 13 71 3 0 -5 4 -7 9 -3 17 10 71 13 71 3 0 -5 4 -7 9 -3 17 10 71
13 71 3 0 -5 4 -6 10 -3 14 9 80 12 74 4 -2 -4 1 -9 8 -11 8 -3 12 -41 13
-126 0 -66 4 -124 8 -128 4 -4 2 -13 -4 -21 -6 -7 -8 -13 -3 -13 10 0 10 -92
0 -109 -4 -6 -3 -11 2 -11 18 0 6 -46 -21 -83 -66 -90 -74 -102 -73 -107 1 -3
-5 -12 -12 -20 -39 -46 -62 -76 -62 -81 0 -3 -11 -19 -25 -35 -14 -16 -25 -33
-25 -38 0 -5 -10 -17 -22 -27 -11 -11 -18 -19 -14 -19 4 0 1 -7 -7 -15 -8 -8
-25 -30 -37 -50 -12 -19 -26 -35 -31 -35 -5 0 -8 -4 -7 -8 3 -9 -19 -42 -59
-92 -13 -15 -23 -33 -23 -39 0 -6 -5 -11 -11 -11 -5 0 -8 -4 -4 -9 3 -6 -4
-15 -16 -21 -11 -7 -18 -14 -15 -17 4 -5 -2 -15 -31 -48 -7 -7 -13 -18 -13
-23 0 -6 -4 -12 -8 -14 -5 -1 -29 -32 -53 -68 -24 -36 -49 -71 -56 -78 -8 -8
-20 -27 -28 -43 -9 -16 -19 -29 -24 -29 -5 0 -12 -8 -15 -17 -12 -33 -33 -63
-39 -56 -7 6 -10 -12 -4 -21 1 -2 -10 -15 -25 -29 -15 -14 -24 -28 -21 -31 4
-3 1 -6 -5 -6 -7 0 -12 -4 -12 -10 0 -5 -10 -21 -22 -36 -13 -14 -22 -28 -20
-30 1 -2 -7 -14 -18 -27 -12 -12 -31 -38 -43 -57 -12 -19 -29 -44 -39 -54 -10
-11 -18 -23 -18 -26 0 -6 -11 -21 -49 -66 -5 -7 -7 -15 -4 -18 4 -3 1 -6 -5
-6 -6 0 -21 -18 -33 -40 -13 -22 -26 -40 -31 -40 -4 0 -8 -6 -8 -13 0 -11 106
-14 603 -14 l602 0 -1 -21 c0 -12 2 -22 5 -22 3 0 7 -62 9 -138 1 -75 3 -170
5 -209 3 -68 1 -73 -18 -74 -24 0 -1900 0 -1934 0 -13 1 -21 4 -18 8 4 3 2 12
-4 19 -7 8 -7 14 1 19 7 4 7 12 0 25 -6 10 -6 21 -1 24 9 6 7 48 -4 65 -3 6
-1 11 5 11 7 0 8 6 2 18 -10 20 -10 107 0 118 4 4 4 12 0 18 -10 16 -8 60 3
68 6 5 6 8 -1 8 -7 0 -11 14 -10 33 3 31 27 74 69 121 9 11 17 25 17 32 0 6 7
14 15 18 8 3 15 12 15 20 0 8 4 16 8 18 9 3 123 164 123 172 0 3 13 20 30 38
16 18 35 45 42 61 6 15 15 27 19 27 3 0 17 17 29 38 13 20 29 43 36 50 7 7 13
17 13 20 0 4 10 18 23 32 13 14 25 30 27 35 2 6 20 32 39 60 20 27 66 92 103
145 37 52 74 104 82 115 8 11 15 23 16 28 0 4 8 15 18 25 32 35 52 62 52 72 0
6 5 10 12 10 6 0 8 3 5 6 -4 4 3 15 14 25 11 9 20 21 21 26 0 8 31 52 56 78 6
8 12 19 12 25 0 6 7 13 15 16 8 4 12 10 9 15 -3 5 -1 9 5 9 5 0 12 8 15 18 5
15 19 34 66 89 5 7 10 17 10 23 0 5 5 10 10 10 6 0 10 5 10 11 0 10 16 33 61
87 6 7 8 16 4 20 -4 4 -244 8 -533 8 -290 1 -530 2 -533 3 -3 0 -5 37 -5 81 1
44 -2 80 -6 80 -4 0 -5 6 -3 13 12 33 13 67 2 67 -7 0 -6 4 3 10 8 5 11 10 5
10 -6 0 -10 40 -10 99 0 79 2 97 12 89 7 -6 13 -7 13 -2z m1873 -6383 c-4 -10
-15 -29 -25 -42 -10 -13 -18 -30 -18 -37 0 -8 -3 -14 -7 -14 -5 0 -17 -18 -27
-40 -11 -22 -23 -40 -28 -40 -4 0 -8 -5 -8 -11 0 -6 -20 -38 -45 -70 -25 -33
-45 -62 -45 -65 0 -6 -16 -25 -65 -78 -11 -11 -19 -25 -17 -29 1 -5 -2 -6 -8
-2 -5 3 -10 2 -10 -3 0 -22 -380 -406 -380 -384 0 4 -4 3 -8 -3 -4 -5 -22 -23
-40 -39 -25 -23 -32 -26 -32 -13 0 9 5 17 11 17 14 0 31 15 187 170 112 110
162 164 237 257 11 14 28 34 38 44 9 10 17 24 17 29 0 6 5 10 10 10 6 0 10 5
10 10 0 6 8 18 18 28 29 31 52 62 47 62 -6 0 6 17 38 51 9 10 14 19 11 19 -3
0 2 7 11 16 8 9 34 44 57 78 40 60 68 96 74 96 2 0 0 -8 -3 -17z m-8640 -127
c18 -21 34 -44 36 -50 2 -6 15 -21 28 -33 13 -13 21 -23 18 -23 -4 0 0 -6 7
-14 7 -7 20 -24 28 -36 8 -12 27 -36 42 -54 15 -17 30 -39 34 -49 3 -9 10 -15
15 -12 5 4 9 -3 9 -15 0 -12 5 -18 10 -15 6 3 10 2 10 -4 0 -6 11 -22 25 -36
14 -14 23 -25 20 -25 -3 0 13 -17 35 -39 22 -21 37 -41 33 -45 -3 -3 1 -6 10
-6 9 0 17 -4 17 -10 0 -10 99 -110 187 -187 29 -26 53 -51 53 -55 0 -8 -22 10
-115 92 -80 72 -325 325 -325 336 0 4 -26 37 -46 58 -6 6 -36 48 -67 91 -31
44 -61 85 -66 91 -5 7 -7 15 -4 18 4 3 1 6 -5 6 -7 0 -12 7 -12 15 0 8 -5 15
-11 15 -5 0 -8 4 -4 9 3 5 1 12 -5 16 -5 3 -15 16 -21 28 -11 24 -7 20 64 -67z
m2 -108 c6 -7 22 -29 35 -48 14 -19 31 -41 38 -48 7 -8 25 -30 40 -50 15 -21
29 -39 33 -42 3 -3 26 -31 51 -62 26 -31 49 -54 52 -51 3 4 6 1 6 -5 0 -17
289 -302 306 -302 3 0 56 -45 95 -82 11 -10 24 -18 29 -18 6 0 10 -4 10 -10 0
-5 6 -10 14 -10 8 0 17 -7 20 -16 4 -9 9 -14 13 -11 3 4 13 -2 22 -12 19 -21
62 -46 74 -43 5 1 6 -2 2 -8 -3 -5 -2 -10 3 -10 4 0 17 -8 28 -17 10 -10 31
-24 47 -32 15 -8 27 -18 27 -23 0 -4 6 -8 13 -8 6 0 30 -14 51 -30 22 -17 46
-30 53 -30 7 0 13 -4 13 -10 0 -5 7 -10 15 -10 8 0 15 -4 15 -10 0 -5 6 -10
14 -10 7 0 19 -7 26 -15 7 -8 16 -12 21 -9 5 3 9 0 9 -5 0 -6 7 -11 15 -11 8
0 15 -4 15 -8 0 -4 16 -14 35 -21 19 -7 35 -17 35 -22 0 -5 9 -9 20 -9 11 0
20 -4 20 -9 0 -8 37 -24 53 -22 4 1 7 -4 7 -10 0 -5 5 -7 10 -4 6 3 10 2 10
-3 0 -9 37 -25 53 -23 4 1 7 -3 7 -8 0 -5 11 -12 25 -15 14 -4 25 -11 25 -16
0 -5 6 -7 13 -5 6 3 23 -5 37 -16 14 -11 20 -18 14 -15 -6 3 -21 7 -35 10 -13
3 -34 7 -46 10 -25 5 -30 -6 -10 -22 11 -9 64 -40 114 -67 13 -7 20 -14 18
-17 -3 -3 -48 16 -100 42 -52 26 -95 47 -95 45 0 -1 -33 15 -72 36 -40 21 -90
46 -110 56 -21 10 -38 21 -38 26 0 4 -4 6 -9 2 -5 -3 -16 0 -23 7 -15 14 -45
32 -98 60 -43 22 -73 41 -80 49 -3 3 -27 19 -55 34 -27 16 -58 37 -68 47 -10
10 -22 16 -27 13 -4 -3 -10 -1 -12 3 -1 4 -25 23 -53 42 -27 18 -52 36 -55 40
-3 3 -21 17 -40 30 -19 13 -40 29 -46 35 -6 5 -26 21 -44 35 -73 55 -102 80
-94 80 4 0 -11 12 -33 27 -23 15 -40 30 -37 35 3 4 0 8 -7 8 -17 0 -319 310
-319 327 0 4 -17 25 -45 56 -12 12 -22 27 -23 32 -1 6 -9 18 -17 28 -8 9 -15
20 -15 23 0 3 -13 25 -30 49 -16 24 -30 46 -30 48 0 3 -8 22 -17 43 -9 22 -18
52 -18 67 -2 27 -1 26 44 -22 25 -27 51 -55 56 -63z m-2439 -295 c-3 -3 9 -20
26 -38 16 -18 30 -37 31 -42 1 -4 9 -17 19 -28 9 -11 26 -31 37 -44 12 -13 21
-27 21 -31 0 -6 12 -22 50 -67 5 -7 10 -17 10 -23 0 -5 3 -10 8 -10 4 0 18
-18 32 -39 13 -22 28 -37 32 -35 5 3 7 1 6 -4 -3 -11 13 -38 50 -82 12 -15 22
-32 22 -38 0 -6 3 -12 8 -14 8 -4 84 -103 127 -168 17 -25 36 -52 43 -60 49
-59 72 -89 72 -94 0 -7 59 -89 83 -116 8 -8 29 -37 47 -65 19 -27 36 -52 39
-55 3 -3 20 -25 36 -50 17 -24 36 -51 43 -60 22 -25 86 -113 112 -152 14 -21
28 -38 33 -38 4 0 7 -7 7 -15 0 -9 7 -18 15 -21 8 -4 12 -10 9 -15 -3 -5 0 -9
6 -9 6 0 15 -11 20 -25 5 -14 13 -25 18 -25 4 0 16 -15 27 -32 10 -18 29 -44
42 -58 13 -14 23 -29 23 -33 0 -5 6 -14 13 -22 27 -28 47 -56 47 -64 0 -4 9
-16 20 -26 12 -11 31 -36 42 -57 12 -21 25 -38 30 -38 4 0 8 -5 8 -11 0 -6 6
-16 13 -24 28 -30 47 -56 47 -65 0 -6 5 -10 10 -10 6 0 10 -5 10 -10 0 -9 34
-58 93 -135 51 -67 77 -106 77 -114 0 -6 3 -11 8 -11 4 0 18 -17 32 -38 14
-20 30 -41 37 -45 7 -4 13 -15 13 -22 0 -8 5 -15 10 -15 6 0 10 -6 10 -13 0
-7 8 -20 18 -29 25 -24 42 -46 42 -55 0 -7 14 -25 59 -79 5 -7 7 -15 3 -20 -4
-4 -1 -4 6 0 7 4 12 2 12 -7 0 -7 9 -23 20 -35 11 -12 20 -26 20 -32 0 -5 5
-10 10 -10 6 0 10 -4 10 -10 0 -5 8 -18 18 -28 9 -10 24 -29 32 -41 14 -21 34
-47 59 -77 5 -7 7 -14 4 -18 -3 -3 2 -8 11 -12 9 -3 16 -12 16 -20 0 -8 5 -14
10 -14 6 0 10 -7 10 -15 0 -7 6 -18 13 -22 6 -4 26 -28 42 -53 17 -25 33 -46
38 -48 4 -2 7 -10 7 -18 0 -9 5 -12 10 -9 6 3 10 0 10 -7 0 -11 93 -143 129
-185 6 -7 11 -17 11 -23 0 -5 3 -10 8 -10 4 0 18 -18 32 -40 14 -22 28 -40 32
-40 5 0 8 -4 8 -10 0 -5 6 -18 14 -27 39 -48 86 -114 86 -121 0 -4 9 -14 19
-22 11 -7 18 -17 16 -20 -3 -4 7 -18 20 -30 14 -13 25 -28 25 -35 0 -6 8 -18
18 -27 17 -17 29 -31 47 -60 34 -52 65 -96 84 -117 11 -13 21 -27 21 -30 0 -3
11 -19 25 -34 14 -15 23 -27 20 -27 -3 0 -1 -6 5 -12 45 -54 60 -74 60 -83 0
-6 9 -17 20 -25 11 -8 20 -18 20 -23 0 -5 6 -14 13 -21 6 -7 21 -25 32 -41 11
-15 31 -40 45 -54 18 -19 24 -34 20 -50 l-5 -23 -23 26 c-12 15 -22 30 -22 35
0 5 -3 11 -7 13 -5 2 -28 30 -53 63 -57 76 -62 83 -78 100 -7 8 -10 15 -6 15
4 0 -1 7 -12 15 -10 8 -16 15 -11 15 4 0 -1 8 -10 18 -10 11 -27 32 -38 47
-11 16 -31 41 -43 57 -13 15 -21 28 -17 28 5 0 1 6 -30 43 -6 7 -22 28 -35 47
-13 19 -27 37 -30 40 -13 12 -60 80 -56 80 4 0 -2 8 -11 19 -25 27 -52 62 -71
94 -9 15 -20 27 -24 27 -4 0 -8 7 -8 15 0 8 -3 15 -7 15 -5 0 -24 25 -43 55
-19 30 -38 55 -42 55 -5 0 -8 5 -8 10 0 9 -45 73 -90 127 -6 7 -10 17 -10 23
0 5 -3 10 -8 10 -4 0 -18 18 -32 40 -14 22 -28 40 -32 40 -5 0 -8 5 -8 10 0 6
-5 16 -10 23 -6 7 -34 44 -62 82 -29 39 -56 72 -60 73 -4 2 -6 7 -3 12 2 4 -4
15 -15 25 -11 10 -20 24 -20 32 0 7 -7 16 -15 19 -8 4 -15 12 -15 20 0 8 -4
14 -10 14 -5 0 -10 5 -10 11 0 7 -6 17 -13 23 -8 6 -47 58 -88 116 -40 58 -78
110 -84 117 -5 7 -26 35 -45 64 -19 28 -52 73 -72 100 -21 26 -38 51 -38 54 0
4 -6 12 -12 19 -7 8 -20 24 -28 36 -8 12 -31 44 -50 70 -19 26 -42 58 -50 70
-8 12 -25 34 -37 48 -13 15 -23 31 -23 35 0 5 -6 14 -12 22 -24 24 -48 55 -48
61 0 5 -11 19 -37 49 -7 7 -13 19 -13 25 0 6 -7 13 -15 16 -8 4 -13 10 -10 14
3 4 -2 10 -10 14 -8 3 -15 12 -15 21 0 8 -3 15 -7 15 -5 0 -19 17 -33 38 -14
20 -27 39 -30 42 -3 3 -21 28 -40 55 -19 28 -42 59 -52 69 -10 11 -18 23 -18
26 0 4 -10 18 -21 31 -19 21 -33 41 -84 117 -5 8 -20 26 -32 40 -13 14 -23 31
-23 38 0 7 -3 14 -7 16 -9 3 -50 53 -73 88 -8 12 -42 59 -75 104 -33 45 -78
107 -99 139 -22 31 -44 57 -49 57 -6 0 -8 3 -4 6 3 3 -5 18 -18 32 -13 14 -22
29 -19 34 3 4 1 8 -5 8 -5 0 -27 26 -48 58 -20 31 -43 61 -50 65 -7 4 -13 14
-13 22 0 7 -4 15 -8 17 -5 2 -28 31 -51 65 -24 35 -50 67 -59 72 -9 5 -14 13
-10 16 4 4 -4 18 -18 32 -13 13 -24 28 -24 32 0 4 -8 17 -17 29 -46 53 -52 62
-47 62 2 0 -7 12 -21 27 -14 15 -25 33 -25 40 0 7 -4 13 -10 13 -5 0 -10 6
-10 13 0 7 -9 19 -20 27 -11 8 -20 19 -20 25 0 6 -8 20 -18 31 -26 28 -57 78
-54 87 1 4 -3 7 -9 7 -5 0 -7 5 -4 10 5 8 11 7 21 -1 8 -6 12 -14 10 -16z
m13368 2 c-4 -8 -10 -15 -15 -15 -5 0 -9 -4 -9 -10 0 -11 -56 -93 -87 -128
-13 -14 -23 -28 -23 -32 0 -4 -11 -20 -25 -36 -14 -16 -25 -34 -25 -40 0 -7
-7 -15 -16 -18 -8 -3 -12 -10 -9 -16 3 -5 2 -10 -3 -10 -6 0 -24 -22 -42 -50
-18 -27 -37 -50 -43 -50 -6 0 -8 -3 -4 -6 3 -4 -14 -33 -38 -65 -25 -31 -45
-62 -45 -67 0 -5 -7 -13 -16 -16 -8 -3 -12 -10 -9 -16 3 -5 2 -10 -3 -10 -5 0
-24 -24 -42 -52 -19 -29 -37 -55 -40 -58 -8 -7 -123 -168 -155 -218 -5 -9 -20
-27 -32 -41 -13 -14 -23 -31 -23 -37 0 -7 -7 -14 -15 -18 -8 -3 -15 -12 -15
-20 0 -8 -3 -16 -7 -18 -5 -1 -21 -23 -38 -48 -16 -25 -34 -48 -38 -51 -5 -4
-14 -16 -20 -27 -13 -22 -135 -196 -152 -215 -5 -7 -22 -30 -38 -53 -15 -22
-35 -49 -45 -60 -10 -10 -27 -35 -39 -54 -12 -20 -31 -46 -42 -59 -11 -13 -18
-27 -16 -32 3 -4 -4 -10 -15 -14 -11 -4 -18 -10 -16 -14 3 -4 -6 -19 -20 -34
-13 -14 -24 -31 -24 -37 0 -5 -4 -10 -10 -10 -5 0 -10 -6 -10 -14 0 -8 -4 -16
-8 -18 -4 -1 -23 -25 -42 -53 -19 -27 -39 -54 -43 -60 -13 -16 -136 -187 -155
-215 -9 -14 -19 -27 -22 -30 -3 -3 -16 -22 -29 -42 -12 -21 -27 -38 -32 -38
-6 0 -8 -4 -5 -9 4 -5 2 -11 -2 -13 -5 -1 -27 -31 -50 -64 -23 -34 -48 -69
-57 -77 -8 -9 -15 -21 -15 -27 0 -6 -7 -13 -15 -16 -8 -4 -15 -12 -15 -20 0
-8 -4 -14 -10 -14 -5 0 -10 -7 -10 -15 0 -7 -6 -18 -12 -22 -7 -4 -35 -41 -62
-80 -27 -40 -53 -73 -58 -73 -5 0 -6 -4 -3 -10 3 -5 2 -10 -4 -10 -5 0 -12 -8
-15 -17 -3 -10 -17 -30 -31 -45 -14 -16 -23 -28 -20 -28 4 0 0 -6 -7 -13 -7
-7 -24 -30 -38 -50 -14 -20 -28 -37 -32 -37 -5 0 -8 -7 -8 -15 0 -8 -4 -15
-10 -15 -5 0 -10 -5 -10 -10 0 -6 -5 -16 -10 -23 -16 -19 -64 -83 -80 -107 -8
-12 -20 -28 -27 -35 -7 -7 -9 -15 -6 -19 4 -3 2 -6 -4 -6 -6 0 -25 -22 -42
-49 -17 -26 -43 -61 -56 -77 -14 -16 -25 -34 -25 -40 0 -7 -7 -14 -15 -18 -8
-3 -15 -12 -15 -21 0 -8 -4 -15 -9 -15 -6 0 -16 -11 -23 -24 -11 -22 -154
-225 -176 -251 -4 -5 -9 -14 -9 -19 -1 -5 -6 -12 -11 -15 -6 -3 -27 -31 -48
-61 -21 -30 -41 -59 -46 -65 -40 -51 -88 -115 -88 -120 0 -3 -9 -16 -20 -28
-39 -43 -70 -85 -70 -95 0 -6 -6 -15 -13 -19 -7 -4 -28 -29 -47 -55 -27 -39
-39 -48 -64 -49 -50 -2 -207 1 -258 4 -27 2 -48 -1 -48 -6 0 -4 -5 -5 -11 -2
-14 9 -583 10 -598 1 -6 -4 -11 -4 -11 1 0 9 -494 8 -509 -2 -6 -3 -11 -3 -11
2 0 6 -63 7 -145 1 -5 0 -57 0 -115 1 -58 0 -112 0 -120 0 -36 -1 -239 1 -275
2 -22 1 -88 2 -147 1 -60 0 -108 4 -108 9 0 11 -11 10 153 12 86 1 137 -2 137
-8 0 -7 3 -7 8 0 4 6 55 10 117 10 62 0 113 -4 117 -10 5 -7 8 -7 8 0 0 6 92
10 255 10 140 0 255 4 255 8 0 5 5 5 12 1 15 -10 288 -12 288 -3 0 4 16 3 35
-1 22 -5 35 -4 35 2 0 6 6 6 14 -1 10 -8 16 -9 21 -1 4 7 12 7 26 0 12 -7 19
-7 19 -1 0 6 11 6 30 1 19 -5 30 -5 30 1 0 6 8 5 20 -1 11 -6 20 -7 20 -3 0 4
20 8 45 8 25 0 45 -4 45 -8 0 -5 5 -5 12 -1 7 4 97 9 201 10 104 2 196 5 203
8 8 3 14 1 14 -5 0 -6 4 -8 10 -4 5 3 45 8 88 10 44 3 90 9 103 14 31 12 80
59 98 94 8 15 16 25 19 22 3 -2 18 15 35 38 17 23 39 49 49 58 10 9 18 21 18
28 0 6 5 11 10 11 6 0 10 7 10 15 0 8 4 15 8 15 5 0 21 18 38 41 16 23 37 48
47 57 9 9 17 22 17 29 0 7 4 13 8 13 5 0 15 12 22 28 8 15 25 42 38 60 12 17
21 32 18 32 -6 0 3 11 44 58 11 12 17 22 14 22 -3 0 3 14 13 30 9 17 20 30 24
30 4 0 12 14 18 30 5 17 15 30 20 30 6 0 11 7 11 16 0 9 5 12 12 8 8 -5 9 -2
5 10 -4 10 -3 15 3 11 6 -3 13 2 17 12 4 10 11 23 15 28 5 6 41 55 80 110 40
55 75 102 78 105 3 3 14 22 24 42 10 21 23 35 29 31 6 -3 7 -2 4 4 -4 5 1 19
11 29 9 11 26 37 37 58 11 22 32 52 47 69 16 16 28 32 28 36 1 13 39 51 51 51
7 0 9 3 6 6 -4 4 7 24 23 44 16 20 27 40 23 44 -3 3 -1 6 4 6 6 0 24 18 41 40
16 22 32 37 35 33 4 -3 7 0 7 8 0 8 14 30 30 49 43 49 50 58 50 65 0 3 18 23
40 45 22 22 38 40 35 40 -6 0 20 33 55 71 14 15 26 33 28 40 2 8 11 23 21 34
10 11 23 27 29 35 7 8 32 40 56 70 24 30 42 58 40 62 -3 5 -1 8 4 8 5 0 29 27
53 61 24 33 51 69 59 79 8 10 22 28 30 40 8 12 21 28 28 36 6 7 12 15 12 18 0
5 86 125 110 153 5 7 10 14 10 17 0 11 83 116 91 116 5 0 9 6 9 13 0 7 9 23
20 35 11 12 20 26 20 31 0 6 6 14 13 18 6 4 29 33 49 63 21 31 47 66 58 78 11
12 18 22 14 22 -4 0 3 9 16 20 13 11 20 20 16 20 -8 0 75 113 87 118 4 2 7 8
7 12 0 5 14 29 30 52 17 24 51 73 76 111 25 37 50 67 55 67 5 0 9 6 9 13 0 7
11 24 25 39 14 15 25 32 25 38 0 5 5 10 12 10 6 0 9 3 5 6 -6 6 6 24 35 51 9
9 14 21 11 27 -3 6 -2 8 2 3 5 -4 20 11 35 32 14 22 38 54 53 71 15 16 25 30
21 30 -3 0 1 7 9 15 8 8 25 30 37 50 12 19 27 35 32 35 6 0 9 3 5 6 -5 5 58
101 93 142 6 6 9 12 6 12 -3 0 6 12 20 27 13 14 22 28 20 30 -4 4 3 14 49 64
8 9 15 21 15 27 0 7 5 12 12 12 6 0 9 2 6 5 -5 6 63 85 74 85 4 0 5 -7 2 -15z
m-13260 -74 c-2 -2 9 -18 24 -36 37 -44 83 -106 150 -200 31 -44 59 -82 63
-85 3 -3 12 -15 18 -28 7 -13 19 -31 26 -40 8 -9 42 -55 76 -102 34 -47 68
-89 76 -93 7 -4 13 -12 13 -18 0 -5 5 -15 10 -22 24 -28 46 -56 60 -77 8 -12
27 -36 42 -54 15 -17 30 -39 34 -48 3 -10 9 -18 13 -18 5 0 14 -13 21 -29 6
-16 18 -32 26 -35 8 -3 14 -12 14 -21 0 -8 5 -15 11 -15 5 0 7 -4 4 -10 -3 -5
-3 -10 2 -10 4 0 19 -17 33 -37 14 -20 30 -41 35 -47 6 -6 30 -40 54 -76 24
-36 47 -67 50 -70 3 -3 26 -32 50 -65 25 -33 48 -61 53 -63 4 -2 8 -9 8 -16 0
-7 9 -21 20 -31 11 -10 20 -23 20 -29 0 -6 9 -17 20 -24 11 -7 20 -19 20 -27
0 -7 9 -20 20 -28 11 -8 17 -17 13 -20 -3 -4 -2 -7 4 -7 5 0 18 -16 29 -35 10
-19 22 -35 26 -35 5 0 8 -5 8 -10 0 -11 10 -25 48 -65 13 -14 20 -25 17 -25
-6 0 8 -19 45 -58 13 -15 22 -28 20 -28 -5 -1 26 -45 68 -95 12 -15 22 -29 22
-32 0 -3 14 -21 30 -39 17 -18 30 -38 30 -46 0 -7 5 -10 11 -6 7 4 10 2 7 -6
-2 -7 8 -25 22 -39 14 -15 32 -36 40 -47 66 -86 86 -109 92 -112 5 -2 8 -8 8
-14 0 -5 6 -15 13 -23 30 -32 45 -54 40 -59 -4 -3 0 -6 8 -6 8 -1 32 -26 54
-57 22 -31 49 -67 60 -79 11 -13 31 -38 45 -56 14 -18 37 -45 53 -60 15 -15
27 -31 27 -36 0 -5 11 -21 25 -36 13 -14 22 -26 19 -26 -3 0 6 -11 18 -25 51
-57 58 -65 58 -71 0 -4 8 -14 18 -23 9 -9 28 -37 42 -63 13 -27 28 -48 32 -48
5 0 8 -6 8 -12 0 -7 11 -26 25 -43 35 -43 40 -49 42 -62 1 -6 14 -24 27 -38
14 -15 28 -36 31 -46 4 -11 10 -19 15 -19 4 0 22 -21 38 -47 16 -27 37 -57 46
-68 9 -11 34 -45 56 -75 22 -30 43 -59 47 -65 4 -5 17 -27 28 -47 11 -21 23
-38 28 -38 4 0 6 -4 3 -9 -4 -5 -2 -11 3 -13 5 -1 41 -51 80 -110 39 -59 80
-116 91 -125 11 -10 20 -22 20 -27 0 -5 8 -16 18 -25 9 -9 30 -34 46 -56 16
-22 37 -47 45 -56 9 -9 29 -34 46 -55 82 -107 112 -124 233 -128 32 -2 64 -6
70 -10 7 -4 12 -3 12 2 0 6 14 7 34 2 18 -4 41 -3 50 2 11 6 16 5 16 -3 0 -8
3 -9 13 0 8 6 17 8 21 4 4 -4 170 -8 371 -9 200 -1 368 -5 374 -9 6 -3 11 -2
11 2 0 5 27 6 60 3 35 -3 64 -2 70 4 6 6 10 6 10 1 0 -6 298 -9 795 -8 444 1
795 -2 795 -7 0 -5 -70 -8 -155 -7 -97 1 -155 -2 -156 -8 0 -7 -2 -7 -5 0 -4
10 -110 13 -119 3 -3 -2 -28 -1 -57 2 -35 5 -55 4 -60 -4 -5 -6 -8 -7 -8 -1 0
10 -102 10 -127 0 -7 -2 -13 0 -13 6 0 6 -5 7 -11 3 -6 -3 -292 -7 -635 -8
-343 0 -624 -4 -624 -9 0 -4 -8 -4 -17 1 -10 5 -45 7 -78 5 -33 -2 -67 -3 -75
-3 -8 0 -62 1 -120 3 -58 1 -111 -2 -117 -7 -8 -5 -13 -4 -13 2 0 10 -7 10
-45 2 -5 -1 -12 -1 -15 0 -18 8 -200 3 -200 -5 0 -7 -3 -7 -8 0 -8 11 -47 14
-57 3 -4 -3 -19 -3 -33 1 -15 4 -38 5 -52 1 -25 -6 -90 9 -90 22 0 3 -6 13
-13 20 -7 7 -26 31 -42 53 -17 22 -33 42 -36 45 -10 9 -169 220 -169 225 0 3
-11 18 -24 33 -14 15 -24 31 -23 35 1 5 -6 13 -15 18 -10 6 -18 14 -18 20 0 5
-5 15 -10 22 -6 7 -28 37 -50 67 -21 30 -46 62 -55 71 -8 9 -15 21 -15 27 0 7
-5 12 -11 12 -5 0 -7 5 -4 10 3 6 1 10 -5 10 -6 0 -14 8 -17 18 -4 9 -14 24
-22 32 -9 8 -30 35 -46 60 -17 25 -35 51 -42 58 -7 7 -20 26 -30 42 -9 17 -21
30 -25 30 -4 0 -8 6 -8 14 0 8 -3 16 -8 18 -4 2 -32 37 -62 78 -30 41 -58 77
-62 78 -5 2 -8 10 -8 18 0 8 -4 14 -8 14 -4 0 -15 12 -24 28 -9 15 -26 38 -38
52 -11 13 -31 40 -42 60 -12 19 -25 37 -28 40 -3 3 -34 44 -69 92 -34 48 -69
95 -77 103 -9 8 -13 15 -9 15 5 0 1 6 -30 43 -6 7 -22 28 -35 47 -13 19 -30
41 -37 48 -7 7 -13 17 -13 22 0 5 -6 15 -13 22 -7 7 -24 29 -37 48 -13 19 -28
40 -33 45 -33 42 -120 163 -125 175 -3 8 -18 27 -33 42 -15 16 -32 42 -39 58
-7 17 -16 30 -20 30 -4 0 -31 35 -60 77 -30 43 -57 82 -62 88 -17 21 -65 86
-118 162 -30 43 -58 80 -62 81 -5 2 -8 10 -8 17 0 7 -3 15 -8 17 -4 2 -28 32
-54 68 -26 36 -51 70 -56 76 -5 6 -27 35 -48 65 -21 30 -43 57 -49 61 -5 4 -6
8 -2 8 4 0 -2 10 -13 23 -12 12 -29 34 -38 50 -9 15 -20 27 -24 27 -4 0 -8 5
-8 10 0 6 -26 45 -57 88 -32 42 -69 93 -82 112 -13 19 -28 38 -33 41 -5 3 -10
10 -11 15 -1 10 -11 23 -39 55 -10 10 -18 24 -18 30 0 6 -7 17 -15 25 -8 9
-36 46 -62 82 -26 37 -52 70 -58 74 -6 5 -6 8 0 8 6 0 6 3 0 8 -6 4 -28 32
-50 62 -22 30 -42 57 -45 60 -14 13 -50 70 -50 79 0 6 -6 14 -13 18 -8 4 -22
23 -32 41 -11 17 -23 32 -27 32 -4 0 -8 6 -8 14 0 8 -3 16 -8 18 -7 3 -138
181 -174 236 -23 35 -23 47 0 25 10 -10 17 -20 16 -22z m3026 -296 c11 -13 10
-14 -4 -9 -9 3 -16 10 -16 15 0 5 -11 15 -25 21 -14 6 -25 15 -25 20 0 11 50
-23 70 -47z m7150 -5 c-14 -11 -34 -28 -44 -37 -18 -17 -18 -17 -9 0 5 10 23
27 39 37 38 24 45 24 14 0z m-7109 -27 c13 -16 12 -17 -3 -4 -10 7 -18 15 -18
17 0 8 8 3 21 -13z m7019 -43 c0 -5 -5 -10 -11 -10 -5 0 -7 5 -4 10 3 6 8 10
11 10 2 0 4 -4 4 -10z m-170 -114 c0 -2 -8 -10 -17 -17 -16 -13 -17 -12 -4 4
13 16 21 21 21 13z m-370 -226 c0 -5 -5 -10 -11 -10 -5 0 -7 5 -4 10 3 6 8 10
11 10 2 0 4 -4 4 -10z m-95 -58 c-3 -3 -11 0 -18 7 -9 10 -8 11 6 5 10 -3 15
-9 12 -12z m-95 -37 c-7 -8 -17 -15 -23 -15 -6 0 -2 7 9 15 25 19 30 19 14 0z
m-130 -55 c0 -5 -5 -10 -11 -10 -5 0 -7 5 -4 10 3 6 8 10 11 10 2 0 4 -4 4
-10z m-30 -15 c0 -2 -10 -9 -22 -15 -22 -11 -22 -10 -4 4 21 17 26 19 26 11z
m-80 -29 c0 -2 -8 -10 -17 -17 -16 -13 -17 -12 -4 4 13 16 21 21 21 13z m-40
-21 c0 -7 -57 -35 -79 -38 -11 -2 -24 -6 -27 -10 -4 -4 -12 -7 -18 -7 -15 1
25 24 47 27 10 2 30 10 45 18 31 16 32 17 32 10z m-4770 -65 c0 -5 -5 -10 -11
-10 -5 0 -7 5 -4 10 3 6 8 10 11 10 2 0 4 -4 4 -10z m4625 0 c-3 -5 -13 -10
-22 -10 -8 0 -27 -6 -41 -14 -32 -17 -134 -51 -144 -48 -5 1 -8 -2 -8 -6 0 -4
-10 -8 -22 -9 -11 -1 -24 -6 -27 -11 -3 -5 -14 -8 -23 -6 -10 1 -18 -2 -18 -7
0 -5 -11 -9 -25 -9 -14 0 -25 -4 -25 -9 0 -5 -8 -8 -17 -6 -10 1 -27 -2 -38
-8 -11 -6 -24 -12 -30 -13 -5 -1 -30 -9 -55 -17 -25 -8 -90 -27 -145 -42 -55
-15 -107 -29 -115 -33 -8 -3 -24 -7 -35 -9 -11 -1 -50 -10 -87 -18 -36 -8 -83
-17 -105 -21 -21 -3 -55 -10 -75 -15 -20 -5 -40 -9 -45 -8 -4 1 -10 0 -13 -1
-11 -4 -47 -11 -80 -15 -98 -12 -128 -17 -160 -24 -19 -4 -56 -7 -83 -7 -26 1
-47 -2 -47 -7 0 -4 -11 -5 -25 -3 -13 3 -27 0 -30 -5 -4 -5 -14 -5 -26 1 -11
6 -19 7 -19 2 0 -6 -12 -10 -27 -10 -52 1 -215 -12 -224 -17 -4 -3 -10 -1 -14
5 -4 6 -12 7 -18 3 -7 -4 -39 -9 -72 -10 -133 -7 -667 -6 -775 1 -63 4 -137 9
-165 10 -27 2 -52 4 -55 6 -3 1 -24 2 -47 2 -24 0 -43 4 -43 10 0 6 -6 5 -15
-2 -8 -7 -15 -8 -15 -4 0 8 -40 13 -123 15 -10 0 -30 4 -43 9 -16 6 -24 6 -24
-1 0 -6 -5 -7 -10 -4 -12 7 -70 17 -112 19 -14 0 -24 4 -22 7 2 4 -14 6 -36 5
-22 -1 -40 0 -40 3 0 3 -10 6 -22 7 -24 1 -85 10 -128 20 -14 3 -38 8 -55 11
-46 8 -60 11 -60 13 0 1 -9 3 -20 4 -27 3 -126 26 -145 33 -18 7 -29 10 -55
16 -11 2 -40 9 -65 16 -25 8 -52 15 -60 16 -8 2 -15 4 -15 5 0 1 -8 3 -18 5
-10 2 -26 7 -35 11 -9 4 -28 9 -42 11 -13 2 -30 8 -36 14 -6 5 -13 7 -16 4 -3
-3 -11 1 -18 10 -15 18 -10 19 27 3 15 -6 39 -13 53 -15 14 -2 32 -6 40 -10
17 -7 25 -9 55 -17 11 -3 35 -10 54 -15 19 -6 37 -8 42 -6 4 3 10 1 14 -5 3
-5 19 -10 34 -10 15 0 31 -3 35 -7 3 -4 14 -8 24 -9 21 -2 67 -11 90 -18 9 -3
33 -7 52 -10 19 -3 49 -9 65 -12 17 -4 41 -7 55 -8 14 0 27 -4 30 -8 3 -4 22
-8 43 -10 20 -1 37 -5 37 -8 0 -3 17 -6 38 -6 88 -4 132 -10 132 -18 0 -4 7
-6 15 -3 8 4 17 2 20 -2 3 -5 14 -7 24 -4 10 3 28 0 40 -6 15 -8 21 -9 21 -1
0 6 4 9 8 6 12 -7 55 -14 132 -21 36 -3 85 -8 110 -11 25 -2 70 -6 100 -7 30
-1 61 -6 69 -11 9 -6 12 -5 8 0 -3 6 8 9 26 6 18 -1 60 -5 94 -6 34 -2 66 -7
72 -10 5 -4 12 -2 16 3 3 6 16 7 28 3 34 -11 647 -4 647 8 0 3 35 6 78 7 88 3
179 10 237 17 22 3 60 8 84 11 25 4 48 8 53 11 4 3 8 0 8 -7 0 -9 3 -9 14 0 7
6 21 9 30 5 9 -3 16 -2 16 3 0 5 15 8 33 8 17 -1 46 2 62 6 17 5 53 11 80 14
28 3 76 11 107 19 40 9 55 10 51 2 -4 -6 0 -6 8 1 9 7 32 14 52 15 20 2 37 5
37 8 0 3 8 6 18 7 9 1 31 4 47 8 17 3 48 9 70 12 22 3 46 10 53 16 7 5 15 7
19 4 3 -4 13 -2 22 2 15 8 49 16 108 26 12 2 26 6 31 9 5 3 24 8 43 11 18 3
36 9 39 13 3 4 14 8 25 9 41 4 60 8 65 13 7 7 74 30 88 30 6 0 21 4 34 9 13 5
26 9 31 10 4 0 23 7 42 15 19 8 35 12 35 9 0 -3 7 0 15 7 8 7 15 9 15 4 0 -4
5 -3 12 4 7 7 21 12 33 12 11 0 29 6 40 14 18 12 43 21 68 25 5 0 5 -3 2 -9z
m-4569 -22 c3 -4 -1 -5 -10 -4 -8 1 -18 5 -22 8 -3 4 1 5 10 4 8 -1 18 -5 22
-8z m109 -38 c3 -5 1 -10 -4 -10 -6 0 -11 5 -11 10 0 6 2 10 4 10 3 0 8 -4 11
-10z m55 -22 c0 -11 -12 -10 -30 2 -12 7 -10 9 8 7 12 0 22 -5 22 -9z m50 -12
c0 3 6 1 13 -5 8 -6 18 -7 22 -3 5 4 5 2 1 -5 -7 -13 -61 1 -72 19 -4 6 3 5
15 -1 11 -7 21 -9 21 -5z m79 -33 c0 -11 -3 -13 -6 -5 -2 6 -9 10 -14 6 -5 -3
-9 0 -9 5 0 6 7 11 15 11 8 0 15 -8 14 -17z m2656 -2905 c25 2 45 0 45 -5 0
-4 -25 -8 -55 -8 -30 -1 -55 2 -55 5 0 11 14 22 17 13 2 -4 23 -7 48 -5z m573
3 c12 -1 22 -5 22 -9 0 -4 -121 -8 -270 -7 -148 0 -270 3 -270 7 0 4 12 8 28
10 22 2 411 2 490 -1z m-1968 -9 c0 -4 -25 -8 -55 -9 -30 -1 -55 3 -55 8 0 5
25 9 55 9 30 0 55 -3 55 -8z m120 0 c0 -4 -25 -7 -55 -8 -30 0 -55 3 -55 7 0
4 25 7 55 8 30 0 55 -3 55 -7z m160 -1 c0 -3 -34 -6 -75 -6 -41 -1 -75 3 -75
8 0 4 34 7 75 6 41 -1 75 -5 75 -8z m160 0 c0 -3 -34 -6 -75 -6 -41 -1 -75 3
-75 8 0 4 34 7 75 6 41 -1 75 -5 75 -8z m160 0 c0 -3 -34 -6 -75 -6 -41 -1
-75 3 -75 8 0 4 34 7 75 6 41 -1 75 -5 75 -8z m240 0 c0 -3 -52 -6 -115 -6
-63 -1 -115 3 -115 7 0 4 52 7 115 7 63 -1 115 -4 115 -8z m480 0 c0 -3 -106
-6 -235 -6 -129 0 -235 3 -235 7 0 4 106 7 235 6 129 0 235 -3 235 -7z"/>
<path d="M7007 14994 c-1 -1 -18 -4 -37 -7 -35 -6 -47 -9 -85 -21 -11 -4 -24
-6 -29 -6 -5 1 -12 -3 -15 -8 -3 -6 -13 -12 -21 -14 -8 -2 -20 -7 -26 -13 -40
-35 -56 -45 -66 -45 -6 0 -9 -2 -6 -5 3 -3 -16 -28 -42 -54 -27 -27 -51 -59
-55 -70 -3 -12 -11 -21 -16 -21 -5 0 -9 -8 -9 -18 0 -10 -6 -24 -12 -30 -7 -7
-13 -16 -14 -20 0 -4 -6 -20 -12 -35 -7 -16 -12 -34 -12 -42 0 -8 -4 -16 -9
-19 -4 -3 -12 -20 -16 -38 -4 -18 -9 -40 -12 -48 -2 -8 -6 -28 -8 -45 -3 -16
-8 -50 -13 -75 -5 -25 -8 -56 -7 -68 1 -12 -1 -22 -4 -22 -5 0 -6 -287 -1
-300 2 -5 10 -79 13 -122 1 -10 4 -18 7 -18 4 0 7 -6 7 -13 0 -27 36 -147 44
-147 5 0 8 -3 7 -7 -4 -15 55 -124 83 -154 16 -17 29 -35 29 -40 0 -5 4 -9 8
-9 4 0 23 -15 42 -34 43 -41 90 -64 180 -87 25 -6 52 -14 60 -17 8 -3 20 -4
25 -2 6 1 37 4 70 6 98 6 109 8 123 22 7 6 21 12 30 12 10 0 28 7 40 16 12 8
22 13 22 10 0 -3 11 6 25 20 14 14 29 23 33 21 4 -2 30 20 59 50 29 29 50 53
47 53 -3 0 5 15 18 32 27 38 45 67 54 88 25 60 33 80 44 115 6 22 14 47 17 55
7 18 11 38 19 105 3 27 10 58 15 67 7 12 6 18 -1 18 -6 0 -8 5 -4 12 11 17 12
288 2 288 -5 0 -4 9 2 20 6 11 7 20 2 20 -4 0 -8 10 -8 23 -1 36 -12 109 -23
145 -5 17 -7 32 -4 32 3 0 0 6 -6 13 -6 8 -8 17 -4 20 3 4 1 7 -6 7 -7 0 -9 4
-6 10 3 5 0 20 -7 32 -7 13 -13 25 -13 28 -2 12 -41 88 -59 115 -30 44 -163
173 -173 168 -7 -4 -43 10 -43 16 0 4 -6 8 -12 8 -19 1 -103 20 -103 23 0 3
-125 6 -128 4z"/>
</g>
</svg>
